<svg xmlns="http://www.w3.org/2000/svg" width="544" height="324.7" viewBox="0 0 544 324.7"><g id="Ebene_1" data-name="Ebene 1"><rect width="544" height="325" fill="#ffeeb1"/></g><g id="Ebene_4" data-name="Ebene 4"><line x1="77.73" y1="165.26" x2="418.19" y2="68.98" fill="none" stroke="#333" stroke-linecap="round" stroke-miterlimit="10" stroke-width="3"/><line x1="77.73" y1="165.96" x2="418.19" y2="262.24" fill="none" stroke="#333" stroke-linecap="round" stroke-miterlimit="10" stroke-width="3"/><line x1="80.57" y1="166.84" x2="229.08" y2="208.8" fill="none" stroke="#e35b5a" stroke-miterlimit="10" stroke-width="3.5"/><line x1="229.82" y1="208.98" x2="324.7" y2="235.77" fill="none" stroke="#6290cb" stroke-miterlimit="10" stroke-width="3.5"/><circle cx="79.12" cy="165.26" r="5.54" fill="#333"/><line x1="231.22" y1="67.59" x2="231.22" y2="272.01" fill="none" stroke="#333" stroke-linecap="round" stroke-miterlimit="10" stroke-width="3"/><line x1="325.4" y1="38.29" x2="325.4" y2="280.71" fill="none" stroke="#333" stroke-linecap="round" stroke-miterlimit="10" stroke-width="3"/><path d="M64.5,160.27l-1.3,1.5a4.64,4.64,0,0,0-3.1-1.18c-1.24,0-2.14.56-2.14,1.64s.54,1.44,2.84,2.16,4.1,1.76,4.1,4.36S63,173,59.66,173a6.87,6.87,0,0,1-5-1.9L56,169.57A5.27,5.27,0,0,0,59.6,171c1.48,0,2.54-.72,2.54-2.06,0-1.16-.58-1.68-2.74-2.34-2.9-.9-4.16-2.06-4.16-4.16,0-2.3,2-3.82,4.7-3.82A6.22,6.22,0,0,1,64.5,160.27Z" fill="#333"/><path d="M221.85,110.45c0,3-2.42,4-5.78,4h-4.16V100.61h3.62c3.56,0,5.72,1,5.72,3.52a3,3,0,0,1-2.56,3C220.27,107.41,221.85,108.15,221.85,110.45Zm-7.3-7.9v3.74h1.62c1.44,0,2.38-.64,2.38-1.94s-1-1.8-2.76-1.8Zm4.54,7.8c0-1.66-1.18-2.22-2.72-2.22h-1.82v4.32h1.54C217.83,112.45,219.09,112.09,219.09,110.35Z" fill="#333"/><path d="M218.37,228.79h-4.58l-.86,3.2h-2.74l4.3-13.82h3.26L222,232h-2.8Zm-.52-2-1.78-6.6-1.76,6.6Z" fill="#333"/><path d="M312.89,86.73c0,3-2.42,4-5.78,4H303V76.89h3.62c3.56,0,5.72,1,5.72,3.52a3,3,0,0,1-2.56,3C311.31,83.69,312.89,84.43,312.89,86.73Zm-7.3-7.9v3.74h1.62c1.44,0,2.38-.64,2.38-1.94s-1-1.8-2.76-1.8Zm4.54,7.8c0-1.66-1.18-2.22-2.72-2.22h-1.82v4.32h1.54C308.87,88.73,310.13,88.37,310.13,86.63Z" fill="#333"/><path d="M317.29,77a3.52,3.52,0,0,1-.46,1.54l-1.3,2.72h-1.44l.82-3.06a1.48,1.48,0,1,1,2.38-1.2Z" fill="#333"/><path d="M309.41,255h-4.58l-.86,3.2h-2.74l4.3-13.82h3.26l4.29,13.82h-2.81Zm-.52-2-1.78-6.6-1.76,6.6Z" fill="#333"/><path d="M316.29,244.41a3.52,3.52,0,0,1-.46,1.54l-1.3,2.72h-1.44l.82-3.06a1.48,1.48,0,1,1,2.38-1.2Z" fill="#333"/><path d="M436.92,269.11h-1.66V258.83l-2.81,1.71-.72-1.17,3.73-2.3h1.46Z" fill="#333"/><path d="M442.3,268.07a1.26,1.26,0,1,1-2.51,0,1.26,1.26,0,0,1,2.51,0Z" fill="#333"/><path d="M456.68,257.93l-.94,1a4.28,4.28,0,0,0-2.82-1.08c-1.25,0-2.24.58-2.24,1.77,0,1,.49,1.55,2.72,2.23,2,.61,3.68,1.39,3.68,3.76,0,2.17-1.64,3.68-4.43,3.68a5.84,5.84,0,0,1-4.22-1.6l.94-1.05a4.89,4.89,0,0,0,3.26,1.24c1.46,0,2.66-.72,2.66-2.21,0-1.21-.57-1.75-2.68-2.4-2.41-.73-3.67-1.65-3.67-3.58s1.62-3.24,3.9-3.24A5.22,5.22,0,0,1,456.68,257.93Z" fill="#333"/><path d="M464.29,268.68a3.62,3.62,0,0,1-2.12.65,2.39,2.39,0,0,1-2.56-2.7V260.9H458v-1.28h1.65v-2.14l1.66-.2v2.34h2.25l-.18,1.28h-2.07v5.66c0,.95.3,1.4,1.13,1.4a2.57,2.57,0,0,0,1.26-.38Z" fill="#333"/><path d="M471,259.52l-.31,1.62a2.73,2.73,0,0,0-.83-.11c-1.19,0-1.87.84-2.27,2.66v5.42H466v-9.49h1.42l.16,1.93a2.72,2.72,0,0,1,2.54-2.14A3.67,3.67,0,0,1,471,259.52Z" fill="#333"/><path d="M479.63,268.18l-.38,1.15a1.92,1.92,0,0,1-1.85-1.42,3.24,3.24,0,0,1-2.83,1.42,2.76,2.76,0,0,1-3-2.87c0-2,1.53-3.13,4.17-3.13h1.46v-.7c0-1.37-.66-1.87-2-1.87a8.68,8.68,0,0,0-2.56.5l-.41-1.2a9.1,9.1,0,0,1,3.28-.65c2.28,0,3.33,1.17,3.33,3.15v4.34C478.84,267.73,479.14,268,479.63,268.18Zm-2.45-1.57v-2.18h-1.24c-1.75,0-2.63.65-2.63,1.95a1.5,1.5,0,0,0,1.64,1.71A2.44,2.44,0,0,0,477.18,266.61Z" fill="#333"/><path d="M489.4,262.31v6.8h-1.65v-6.57c0-1.42-.62-1.84-1.52-1.84a2.91,2.91,0,0,0-2.39,1.66v6.75h-1.66V255.82l1.66-.18v5.3a3.39,3.39,0,0,1,2.81-1.53A2.61,2.61,0,0,1,489.4,262.31Z" fill="#333"/><path d="M492.5,267.24V255.81l1.65-.2V267.2c0,.51.17.76.6.76a1.66,1.66,0,0,0,.61-.11l.43,1.15a2.76,2.76,0,0,1-1.31.33A1.87,1.87,0,0,1,492.5,267.24Z" fill="#333"/><path d="M438.82,64.13c0,2.26-1.44,3.86-5.13,7.55h5.42l-.2,1.39H431.8V71.75c4.25-4.43,5.29-5.58,5.29-7.54a1.85,1.85,0,0,0-2-2,3.06,3.06,0,0,0-2.48,1.31l-1.08-.86a4.44,4.44,0,0,1,3.66-1.82A3.3,3.3,0,0,1,438.82,64.13Z" fill="#333"/><path d="M443.41,72a1.25,1.25,0,1,1-1.26-1.24A1.24,1.24,0,0,1,443.41,72Z" fill="#333"/><path d="M457.8,61.88l-.94,1A4.25,4.25,0,0,0,454,61.85c-1.24,0-2.23.57-2.23,1.76s.49,1.55,2.72,2.24c2,.61,3.67,1.38,3.67,3.76,0,2.16-1.64,3.67-4.43,3.67a5.8,5.8,0,0,1-4.21-1.6l.94-1.05a4.86,4.86,0,0,0,3.26,1.25c1.45,0,2.66-.72,2.66-2.22,0-1.2-.58-1.74-2.68-2.39-2.42-.74-3.68-1.66-3.68-3.59s1.62-3.24,3.91-3.24A5.28,5.28,0,0,1,457.8,61.88Z" fill="#333"/><path d="M465.41,72.63a3.57,3.57,0,0,1-2.12.65,2.38,2.38,0,0,1-2.56-2.7V64.85h-1.66V63.58h1.66V61.43l1.65-.19v2.34h2.25l-.17,1.27h-2.08v5.66c0,.95.31,1.4,1.14,1.4a2.61,2.61,0,0,0,1.26-.37Z" fill="#333"/><path d="M472.12,63.47l-.3,1.62A3.09,3.09,0,0,0,471,65c-1.19,0-1.87.85-2.27,2.67v5.42h-1.66V63.58h1.43l.16,1.92a2.71,2.71,0,0,1,2.54-2.14A4.15,4.15,0,0,1,472.12,63.47Z" fill="#333"/><path d="M480.75,72.13l-.38,1.15a1.91,1.91,0,0,1-1.86-1.42,3.22,3.22,0,0,1-2.82,1.42,2.76,2.76,0,0,1-3-2.86c0-2,1.53-3.13,4.18-3.13h1.46v-.71c0-1.37-.67-1.87-2-1.87a8.62,8.62,0,0,0-2.56.5l-.41-1.2a9.31,9.31,0,0,1,3.27-.65c2.29,0,3.33,1.17,3.33,3.15v4.34C480,71.68,480.26,72,480.75,72.13Zm-2.45-1.57V68.38h-1.24c-1.75,0-2.63.65-2.63,2A1.49,1.49,0,0,0,476.06,72,2.44,2.44,0,0,0,478.3,70.56Z" fill="#333"/><path d="M490.52,66.26v6.81h-1.66V66.49c0-1.42-.61-1.83-1.51-1.83A2.9,2.9,0,0,0,485,66.31v6.76H483.3V59.78L485,59.6v5.29a3.39,3.39,0,0,1,2.81-1.53A2.62,2.62,0,0,1,490.52,66.26Z" fill="#333"/><path d="M493.61,71.19V59.76l1.66-.2v11.6c0,.5.16.75.59.75a1.68,1.68,0,0,0,.62-.1l.43,1.15a2.77,2.77,0,0,1-1.32.32A1.87,1.87,0,0,1,493.61,71.19Z" fill="#333"/><path d="M37,183.44,30.87,193H37l-.19,1.46H29v-1.37l6.19-9.59H29.61v-1.44H37Z" fill="#333"/><path d="M46.27,190.28H40.22c.16,2.2,1.18,3.05,2.55,3.05a4,4,0,0,0,2.47-.83l.72,1a5.17,5.17,0,0,1-3.31,1.19c-2.65,0-4.2-1.86-4.2-4.86s1.5-5.06,3.95-5.06,3.9,1.78,3.9,4.68C46.3,189.76,46.28,190.07,46.27,190.28ZM44.66,189c0-1.85-.73-2.88-2.23-2.88-1.26,0-2.09.88-2.21,3h4.44Z" fill="#333"/><path d="M56.09,187.65v6.81H54.44v-6.57c0-1.42-.58-1.84-1.5-1.84a2.87,2.87,0,0,0-2.41,1.68v6.73H48.87V185H50.3l.14,1.41a3.43,3.43,0,0,1,2.9-1.62A2.58,2.58,0,0,1,56.09,187.65Z" fill="#333"/><path d="M64.14,194a3.62,3.62,0,0,1-2.12.65,2.38,2.38,0,0,1-2.56-2.7v-5.73H57.8V185h1.66v-2.14l1.65-.2V185h2.26l-.18,1.28H61.11v5.65c0,1,.31,1.41,1.14,1.41a2.63,2.63,0,0,0,1.26-.38Z" fill="#333"/><path d="M70.85,184.86l-.3,1.62a3.1,3.1,0,0,0-.83-.1c-1.19,0-1.87.84-2.27,2.66v5.42H65.79V185h1.43l.16,1.93a2.71,2.71,0,0,1,2.54-2.14A4.08,4.08,0,0,1,70.85,184.86Z" fill="#333"/><path d="M79.73,194.46H78.31L78.18,193a3.18,3.18,0,0,1-3,1.7c-1.66,0-2.65-1.05-2.65-2.9V185h1.66v6.63c0,1.29.43,1.78,1.46,1.78a2.84,2.84,0,0,0,2.37-1.64V185h1.66Z" fill="#333"/><path d="M95.14,187.65v6.81H93.48v-6.57c0-1.42-.61-1.84-1.33-1.84-1,0-1.59.67-2.23,1.68v6.73H88.26v-6.57c0-1.42-.61-1.84-1.33-1.84-1,0-1.6.67-2.24,1.68v6.73H83V185h1.42l.14,1.39a3.17,3.17,0,0,1,2.74-1.6,2.4,2.4,0,0,1,2.4,1.71,3.27,3.27,0,0,1,2.82-1.71C94.11,184.76,95.14,185.87,95.14,187.65Z" fill="#333"/><path d="M252.54,156.75c0,2.85-2.07,4-4.81,4h-1.56v4.55h-1.71v-12.4h3.26C250.71,152.92,252.54,154.14,252.54,156.75Zm-1.82,0c0-1.86-1.19-2.52-3-2.52h-1.53v5.17h1.49C249.5,159.42,250.72,158.88,250.72,156.77Z" fill="#333"/><path d="M261.29,164.38l-.38,1.16a1.91,1.91,0,0,1-1.85-1.43,3.25,3.25,0,0,1-2.83,1.43,2.76,2.76,0,0,1-3-2.87c0-2,1.53-3.13,4.17-3.13h1.46v-.7c0-1.37-.67-1.87-2-1.87a8.68,8.68,0,0,0-2.56.5l-.41-1.21a9.3,9.3,0,0,1,3.28-.64c2.28,0,3.33,1.17,3.33,3.15v4.34C260.5,163.93,260.8,164.2,261.29,164.38Zm-2.45-1.56v-2.18H257.6c-1.75,0-2.63.65-2.63,1.94a1.49,1.49,0,0,0,1.64,1.71A2.43,2.43,0,0,0,258.84,162.82Z" fill="#333"/><path d="M268.9,155.72l-.3,1.62a3.1,3.1,0,0,0-.83-.1c-1.19,0-1.87.84-2.27,2.66v5.42h-1.66v-9.49h1.43l.16,1.93a2.7,2.7,0,0,1,2.54-2.14A4.14,4.14,0,0,1,268.9,155.72Z" fill="#333"/><path d="M277.53,164.38l-.38,1.16a1.92,1.92,0,0,1-1.86-1.43,3.22,3.22,0,0,1-2.82,1.43,2.76,2.76,0,0,1-3-2.87c0-2,1.53-3.13,4.18-3.13h1.46v-.7c0-1.37-.67-1.87-2-1.87a8.56,8.56,0,0,0-2.56.5l-.42-1.21a9.38,9.38,0,0,1,3.28-.64c2.29,0,3.33,1.17,3.33,3.15v4.34C276.73,163.93,277,164.2,277.53,164.38Zm-2.45-1.56v-2.18h-1.25c-1.74,0-2.62.65-2.62,1.94a1.49,1.49,0,0,0,1.63,1.71A2.43,2.43,0,0,0,275.08,162.82Z" fill="#333"/><path d="M279.88,163.45V152l1.66-.19v11.59c0,.51.16.76.59.76a1.62,1.62,0,0,0,.61-.11l.44,1.15a2.77,2.77,0,0,1-1.32.33A1.87,1.87,0,0,1,279.88,163.45Z" fill="#333"/><path d="M285.17,163.45V152l1.66-.19v11.59c0,.51.16.76.59.76a1.67,1.67,0,0,0,.62-.11l.43,1.15a2.77,2.77,0,0,1-1.32.33A1.87,1.87,0,0,1,285.17,163.45Z" fill="#333"/><path d="M297.67,161.14h-6.05c.16,2.2,1.19,3.05,2.55,3.05a4,4,0,0,0,2.47-.83l.72,1a5.17,5.17,0,0,1-3.31,1.19c-2.65,0-4.2-1.86-4.2-4.86s1.5-5.06,3.95-5.06,3.9,1.78,3.9,4.68C297.7,160.62,297.69,160.93,297.67,161.14Zm-1.6-1.33c0-1.85-.74-2.88-2.24-2.88-1.26,0-2.09.88-2.21,3h4.45Z" fill="#333"/><path d="M300.17,163.45V152l1.65-.19v11.59c0,.51.17.76.6.76a1.66,1.66,0,0,0,.61-.11l.43,1.15a2.76,2.76,0,0,1-1.31.33A1.87,1.87,0,0,1,300.17,163.45Z" fill="#333"/><path d="M312.66,161.14h-6.05c.16,2.2,1.19,3.05,2.56,3.05a4,4,0,0,0,2.47-.83l.72,1a5.18,5.18,0,0,1-3.32,1.19c-2.64,0-4.19-1.86-4.19-4.86s1.49-5.06,3.94-5.06,3.91,1.78,3.91,4.68C312.7,160.62,312.68,160.93,312.66,161.14Zm-1.6-1.33c0-1.85-.74-2.88-2.23-2.88-1.26,0-2.09.88-2.22,3h4.45Z" fill="#333"/><path d="M346.69,202.27a9.31,9.31,0,0,1-2.78.29,2.49,2.49,0,0,1,1.68,2.39c0,1.87-1.35,3.22-3.62,3.22a3.78,3.78,0,0,1-1.21-.18,1.15,1.15,0,0,0-.47.89c0,.43.28.77,1.25.77h1.51c1.95,0,3.24,1.12,3.24,2.63,0,1.84-1.51,2.88-4.45,2.88s-4.07-.95-4.07-2.88h1.5c0,1.08.48,1.58,2.57,1.58s2.78-.52,2.78-1.47-.72-1.35-1.91-1.35h-1.5c-1.69,0-2.45-.85-2.45-1.8a2.05,2.05,0,0,1,1.05-1.68,2.7,2.7,0,0,1-1.6-2.63,3.38,3.38,0,0,1,3.65-3.31,8.14,8.14,0,0,0,4.34-.85Zm-6.79,2.66a1.93,1.93,0,0,0,2,2.15,1.89,1.89,0,0,0,2-2.16,1.85,1.85,0,0,0-2-2.11A1.89,1.89,0,0,0,339.9,204.93Z" fill="#f18400"/><path d="M355.53,207.15h-6c.16,2.2,1.18,3,2.55,3a4,4,0,0,0,2.47-.83l.72,1a5.17,5.17,0,0,1-3.31,1.19c-2.65,0-4.2-1.85-4.2-4.86s1.5-5.06,3.94-5.06,3.91,1.78,3.91,4.68C355.56,206.63,355.54,206.93,355.53,207.15Zm-1.61-1.33c0-1.86-.74-2.88-2.23-2.88-1.26,0-2.09.88-2.21,3h4.44Z" fill="#f18400"/><path d="M364,202.7l-.7,1.05a4.35,4.35,0,0,0-2.46-.81c-1.08,0-1.75.48-1.75,1.24s.5,1.13,2,1.53c2,.5,3.15,1.29,3.15,2.95,0,2-1.81,2.88-3.74,2.88a5.24,5.24,0,0,1-3.58-1.24l.88-1a4.29,4.29,0,0,0,2.66.92c1.25,0,2-.54,2-1.44s-.47-1.3-2.31-1.78c-2.05-.54-2.86-1.43-2.86-2.76,0-1.51,1.46-2.61,3.42-2.61A5.06,5.06,0,0,1,364,202.7Z" fill="#f18400"/><path d="M373.58,211.33h-1.42l-.13-1.48a3.18,3.18,0,0,1-2.95,1.69c-1.66,0-2.65-1-2.65-2.9v-6.8h1.66v6.62c0,1.3.43,1.79,1.46,1.79a2.86,2.86,0,0,0,2.37-1.64v-6.77h1.66Z" fill="#f18400"/><path d="M383.3,202.65l-.79,1a3.26,3.26,0,0,0-2-.7c-1.49,0-2.43,1.17-2.43,3.64s.94,3.51,2.43,3.51a3.51,3.51,0,0,0,2.07-.72l.76,1.08a4.5,4.5,0,0,1-2.9,1c-2.56,0-4.14-1.82-4.14-4.88s1.57-5,4.14-5A4.21,4.21,0,0,1,383.3,202.65Z" fill="#f18400"/><path d="M392.71,204.52v6.81h-1.65v-6.58c0-1.42-.62-1.83-1.52-1.83a2.9,2.9,0,0,0-2.39,1.65v6.76h-1.66V198l1.66-.18v5.29a3.39,3.39,0,0,1,2.81-1.53A2.61,2.61,0,0,1,392.71,204.52Z" fill="#f18400"/><path d="M400.76,210.89a3.58,3.58,0,0,1-2.13.65,2.38,2.38,0,0,1-2.55-2.7v-5.72h-1.66v-1.28h1.66v-2.15l1.65-.19v2.34H400l-.18,1.28h-2.07v5.65c0,.95.31,1.4,1.14,1.4a2.61,2.61,0,0,0,1.26-.37Z" fill="#f18400"/><path d="M211.11,172.32h-1.65V162l-2.81,1.71-.72-1.17,3.73-2.3h1.45Z" fill="#87579f"/><path d="M222.13,169.35h-1.57v3H219v-3h-5.15v-1.19l3.62-8.06,1.39.57L215.56,168H219l.14-3.25h1.44V168h1.57Z" fill="#87579f"/><path d="M146.93,198.9c0,2.25-1.44,3.85-5.13,7.55h5.42l-.2,1.38h-7.11v-1.31c4.25-4.43,5.29-5.58,5.29-7.55a1.85,1.85,0,0,0-2-2,3.08,3.08,0,0,0-2.49,1.31l-1.08-.86a4.47,4.47,0,0,1,3.66-1.82A3.31,3.31,0,0,1,146.93,198.9Z" fill="#e35b5a"/><path d="M157.17,201.82c0,4-1.33,6.23-4,6.23s-4-2.23-4-6.23,1.34-6.21,4-6.21S157.17,197.84,157.17,201.82Zm-6.34,0c0,3.55.8,4.91,2.31,4.91s2.3-1.36,2.3-4.91-.81-4.9-2.3-4.9S150.83,198.29,150.83,201.82Z" fill="#e35b5a"/><path d="M270.83,235.18c0,2.25-1.44,3.85-5.13,7.55h5.42l-.19,1.38h-7.12V242.8c4.25-4.43,5.3-5.58,5.3-7.55a1.86,1.86,0,0,0-2-2,3.08,3.08,0,0,0-2.49,1.32l-1.08-.87a4.46,4.46,0,0,1,3.66-1.81A3.3,3.3,0,0,1,270.83,235.18Z" fill="#6290cb"/><path d="M279.3,233.31l-4.51,11-1.51-.5,4.34-10.37h-5.33v-1.35h7Z" fill="#6290cb"/><line x1="231.31" y1="124.15" x2="231.31" y2="207.5" fill="none" stroke="#87579f" stroke-miterlimit="10" stroke-width="3.5"/><circle cx="231.66" cy="122.01" r="5.54" fill="#333"/><circle cx="231.66" cy="209.22" r="5.54" fill="#333"/><line x1="325.63" y1="97.17" x2="325.63" y2="235.59" fill="none" stroke="#f18400" stroke-miterlimit="10" stroke-width="3.5"/><circle cx="325.45" cy="236.43" r="5.54" fill="#333"/><circle cx="325.45" cy="95.5" r="5.54" fill="#333"/></g></svg>